<mxfile host="app.diagrams.net" modified="2024-04-04T04:51:45.429Z" agent="Mozilla/5.0 (Windows NT 10.0; Win64; x64) AppleWebKit/537.36 (KHTML, like Gecko) Chrome/123.0.0.0 Safari/537.36" etag="5bv9eR52ahaJ3Oji7SYU" version="24.2.2" type="google">
  <diagram name="Page-1" id="_7SXik-QNJEyfd51nSA4">
    <mxGraphModel grid="1" page="1" gridSize="10" guides="1" tooltips="1" connect="1" arrows="1" fold="1" pageScale="1" pageWidth="850" pageHeight="1100" math="0" shadow="0">
      <root>
        <mxCell id="0" />
        <mxCell id="1" parent="0" />
        <mxCell id="N9XQaocmGhFj3KNfDA1R-25" value="" style="rounded=0;whiteSpace=wrap;html=1;" vertex="1" parent="1">
          <mxGeometry x="130" y="-180" width="1550" height="760" as="geometry" />
        </mxCell>
        <mxCell id="o0ZJqGej7Y8488bBRY87-1" value="" style="whiteSpace=wrap;html=1;aspect=fixed;" vertex="1" parent="1">
          <mxGeometry x="160" y="-75" width="320" height="320" as="geometry" />
        </mxCell>
        <mxCell id="o0ZJqGej7Y8488bBRY87-3" value="Username" style="text;html=1;strokeColor=none;fillColor=none;align=center;verticalAlign=middle;whiteSpace=wrap;rounded=0;" vertex="1" parent="1">
          <mxGeometry x="225.5" y="40" width="60" height="30" as="geometry" />
        </mxCell>
        <mxCell id="o0ZJqGej7Y8488bBRY87-4" value="Password" style="text;html=1;strokeColor=none;fillColor=none;align=center;verticalAlign=middle;whiteSpace=wrap;rounded=0;" vertex="1" parent="1">
          <mxGeometry x="225.5" y="70" width="60" height="30" as="geometry" />
        </mxCell>
        <mxCell id="o0ZJqGej7Y8488bBRY87-5" value="" style="rounded=0;whiteSpace=wrap;html=1;" vertex="1" parent="1">
          <mxGeometry x="295.5" y="45" width="120" height="20" as="geometry" />
        </mxCell>
        <mxCell id="o0ZJqGej7Y8488bBRY87-6" value="" style="rounded=0;whiteSpace=wrap;html=1;" vertex="1" parent="1">
          <mxGeometry x="296.5" y="75" width="120" height="20" as="geometry" />
        </mxCell>
        <mxCell id="o0ZJqGej7Y8488bBRY87-7" value="" style="ellipse;whiteSpace=wrap;html=1;aspect=fixed;" vertex="1" parent="1">
          <mxGeometry x="180" y="-60" width="60" height="60" as="geometry" />
        </mxCell>
        <mxCell id="o0ZJqGej7Y8488bBRY87-8" value="" style="endArrow=none;html=1;rounded=0;entryX=0;entryY=0;entryDx=0;entryDy=0;exitX=1;exitY=1;exitDx=0;exitDy=0;" edge="1" parent="1" source="o0ZJqGej7Y8488bBRY87-7" target="o0ZJqGej7Y8488bBRY87-7">
          <mxGeometry width="50" height="50" relative="1" as="geometry">
            <mxPoint x="350" y="110" as="sourcePoint" />
            <mxPoint x="400" y="60" as="targetPoint" />
          </mxGeometry>
        </mxCell>
        <mxCell id="o0ZJqGej7Y8488bBRY87-9" value="" style="endArrow=none;html=1;rounded=0;entryX=1;entryY=0;entryDx=0;entryDy=0;exitX=0;exitY=1;exitDx=0;exitDy=0;" edge="1" parent="1" source="o0ZJqGej7Y8488bBRY87-7" target="o0ZJqGej7Y8488bBRY87-7">
          <mxGeometry width="50" height="50" relative="1" as="geometry">
            <mxPoint x="350" y="110" as="sourcePoint" />
            <mxPoint x="400" y="60" as="targetPoint" />
          </mxGeometry>
        </mxCell>
        <mxCell id="o0ZJqGej7Y8488bBRY87-10" value="Login" style="rounded=1;whiteSpace=wrap;html=1;" vertex="1" parent="1">
          <mxGeometry x="270" y="189" width="80" height="30" as="geometry" />
        </mxCell>
        <mxCell id="o0ZJqGej7Y8488bBRY87-15" value="Guest Mode" style="rounded=1;whiteSpace=wrap;html=1;" vertex="1" parent="1">
          <mxGeometry x="345" y="-53" width="120" height="40" as="geometry" />
        </mxCell>
        <mxCell id="o0ZJqGej7Y8488bBRY87-20" value="" style="rounded=0;whiteSpace=wrap;html=1;" vertex="1" parent="1">
          <mxGeometry x="580" y="100" width="290" height="170" as="geometry" />
        </mxCell>
        <mxCell id="o0ZJqGej7Y8488bBRY87-21" value="Enter your email:&amp;nbsp;" style="text;html=1;strokeColor=none;fillColor=none;align=center;verticalAlign=middle;whiteSpace=wrap;rounded=0;" vertex="1" parent="1">
          <mxGeometry x="590" y="150" width="100" height="30" as="geometry" />
        </mxCell>
        <mxCell id="o0ZJqGej7Y8488bBRY87-22" value="" style="rounded=0;whiteSpace=wrap;html=1;" vertex="1" parent="1">
          <mxGeometry x="690" y="155" width="120" height="20" as="geometry" />
        </mxCell>
        <mxCell id="o0ZJqGej7Y8488bBRY87-23" value="Next" style="rounded=1;whiteSpace=wrap;html=1;" vertex="1" parent="1">
          <mxGeometry x="692.5" y="210" width="75" height="30" as="geometry" />
        </mxCell>
        <mxCell id="o0ZJqGej7Y8488bBRY87-24" value="" style="endArrow=classic;html=1;rounded=0;exitX=1;exitY=0.5;exitDx=0;exitDy=0;" edge="1" parent="1" source="o0ZJqGej7Y8488bBRY87-23">
          <mxGeometry width="50" height="50" relative="1" as="geometry">
            <mxPoint x="590" y="110" as="sourcePoint" />
            <mxPoint x="980" y="225" as="targetPoint" />
          </mxGeometry>
        </mxCell>
        <mxCell id="o0ZJqGej7Y8488bBRY87-25" value="" style="rounded=0;whiteSpace=wrap;html=1;" vertex="1" parent="1">
          <mxGeometry x="1090" y="165" width="120" height="20" as="geometry" />
        </mxCell>
        <mxCell id="o0ZJqGej7Y8488bBRY87-26" value="" style="rounded=0;whiteSpace=wrap;html=1;" vertex="1" parent="1">
          <mxGeometry x="980" y="110" width="290" height="170" as="geometry" />
        </mxCell>
        <mxCell id="o0ZJqGej7Y8488bBRY87-27" value="Next" style="rounded=1;whiteSpace=wrap;html=1;" vertex="1" parent="1">
          <mxGeometry x="1082.5" y="230" width="75" height="30" as="geometry" />
        </mxCell>
        <mxCell id="o0ZJqGej7Y8488bBRY87-28" value="Enter the code:" style="text;html=1;strokeColor=none;fillColor=none;align=center;verticalAlign=middle;whiteSpace=wrap;rounded=0;" vertex="1" parent="1">
          <mxGeometry x="1000" y="180" width="100" height="30" as="geometry" />
        </mxCell>
        <mxCell id="o0ZJqGej7Y8488bBRY87-29" value="" style="rounded=0;whiteSpace=wrap;html=1;" vertex="1" parent="1">
          <mxGeometry x="1094" y="185" width="120" height="20" as="geometry" />
        </mxCell>
        <mxCell id="N9XQaocmGhFj3KNfDA1R-1" value="" style="rounded=1;whiteSpace=wrap;html=1;" vertex="1" parent="1">
          <mxGeometry x="330" y="100" width="120" height="30" as="geometry" />
        </mxCell>
        <mxCell id="o0ZJqGej7Y8488bBRY87-30" value="Please enter the code sent to your email&amp;nbsp;" style="text;html=1;strokeColor=none;fillColor=none;align=center;verticalAlign=middle;whiteSpace=wrap;rounded=0;" vertex="1" parent="1">
          <mxGeometry x="1000" y="140" width="240" height="30" as="geometry" />
        </mxCell>
        <mxCell id="o0ZJqGej7Y8488bBRY87-31" value="" style="endArrow=classic;html=1;rounded=0;exitX=1;exitY=0.5;exitDx=0;exitDy=0;" edge="1" parent="1" source="o0ZJqGej7Y8488bBRY87-27">
          <mxGeometry width="50" height="50" relative="1" as="geometry">
            <mxPoint x="950" y="110" as="sourcePoint" />
            <mxPoint x="1320" y="245" as="targetPoint" />
          </mxGeometry>
        </mxCell>
        <mxCell id="o0ZJqGej7Y8488bBRY87-11" value="Forgot Password?" style="text;html=1;strokeColor=none;fillColor=none;align=center;verticalAlign=middle;whiteSpace=wrap;rounded=0;" vertex="1" parent="1">
          <mxGeometry x="337.5" y="100" width="105" height="30" as="geometry" />
        </mxCell>
        <mxCell id="N9XQaocmGhFj3KNfDA1R-4" value="" style="endArrow=classic;html=1;rounded=0;entryX=0.003;entryY=0.114;entryDx=0;entryDy=0;entryPerimeter=0;" edge="1" parent="1" target="o0ZJqGej7Y8488bBRY87-20">
          <mxGeometry width="50" height="50" relative="1" as="geometry">
            <mxPoint x="450" y="120" as="sourcePoint" />
            <mxPoint x="610" y="40" as="targetPoint" />
          </mxGeometry>
        </mxCell>
        <mxCell id="N9XQaocmGhFj3KNfDA1R-6" value="" style="rounded=0;whiteSpace=wrap;html=1;" vertex="1" parent="1">
          <mxGeometry x="1320" y="110" width="290" height="170" as="geometry" />
        </mxCell>
        <mxCell id="N9XQaocmGhFj3KNfDA1R-8" value="New Password :" style="text;html=1;align=center;verticalAlign=middle;whiteSpace=wrap;rounded=0;" vertex="1" parent="1">
          <mxGeometry x="1340" y="137.5" width="100" height="30" as="geometry" />
        </mxCell>
        <mxCell id="N9XQaocmGhFj3KNfDA1R-9" value="" style="rounded=0;whiteSpace=wrap;html=1;" vertex="1" parent="1">
          <mxGeometry x="1440" y="142.5" width="120" height="20" as="geometry" />
        </mxCell>
        <mxCell id="N9XQaocmGhFj3KNfDA1R-10" value="" style="rounded=0;whiteSpace=wrap;html=1;" vertex="1" parent="1">
          <mxGeometry x="1440" y="189" width="120" height="20" as="geometry" />
        </mxCell>
        <mxCell id="N9XQaocmGhFj3KNfDA1R-11" value="Verify Password:" style="text;html=1;align=center;verticalAlign=middle;whiteSpace=wrap;rounded=0;" vertex="1" parent="1">
          <mxGeometry x="1340" y="184" width="100" height="30" as="geometry" />
        </mxCell>
        <mxCell id="N9XQaocmGhFj3KNfDA1R-12" value="" style="rounded=1;whiteSpace=wrap;html=1;" vertex="1" parent="1">
          <mxGeometry x="1420" y="225" width="95" height="35" as="geometry" />
        </mxCell>
        <mxCell id="N9XQaocmGhFj3KNfDA1R-13" value="Reset" style="text;html=1;align=center;verticalAlign=middle;whiteSpace=wrap;rounded=0;" vertex="1" parent="1">
          <mxGeometry x="1437.5" y="227.5" width="60" height="30" as="geometry" />
        </mxCell>
        <mxCell id="N9XQaocmGhFj3KNfDA1R-14" value="" style="rounded=0;whiteSpace=wrap;html=1;" vertex="1" parent="1">
          <mxGeometry x="1367.5" y="340" width="200" height="170" as="geometry" />
        </mxCell>
        <mxCell id="N9XQaocmGhFj3KNfDA1R-19" value="" style="endArrow=classic;html=1;rounded=0;exitX=0.5;exitY=1;exitDx=0;exitDy=0;entryX=0.5;entryY=0;entryDx=0;entryDy=0;" edge="1" parent="1" source="N9XQaocmGhFj3KNfDA1R-13" target="N9XQaocmGhFj3KNfDA1R-14">
          <mxGeometry width="50" height="50" relative="1" as="geometry">
            <mxPoint x="1120" y="310" as="sourcePoint" />
            <mxPoint x="1170" y="260" as="targetPoint" />
          </mxGeometry>
        </mxCell>
        <mxCell id="N9XQaocmGhFj3KNfDA1R-20" value="" style="ellipse;whiteSpace=wrap;html=1;aspect=fixed;" vertex="1" parent="1">
          <mxGeometry x="1443.75" y="353.76" width="50" height="50" as="geometry" />
        </mxCell>
        <mxCell id="N9XQaocmGhFj3KNfDA1R-21" value="" style="verticalLabelPosition=bottom;verticalAlign=top;html=1;shape=mxgraph.basic.tick" vertex="1" parent="1">
          <mxGeometry x="1453.75" y="363.13" width="30" height="31.25" as="geometry" />
        </mxCell>
        <mxCell id="N9XQaocmGhFj3KNfDA1R-22" value="Password Changed Successful !" style="text;html=1;align=center;verticalAlign=middle;whiteSpace=wrap;rounded=0;" vertex="1" parent="1">
          <mxGeometry x="1371" y="417" width="190" height="30" as="geometry" />
        </mxCell>
        <mxCell id="N9XQaocmGhFj3KNfDA1R-23" value="" style="rounded=1;whiteSpace=wrap;html=1;" vertex="1" parent="1">
          <mxGeometry x="1426.25" y="447" width="88.75" height="33" as="geometry" />
        </mxCell>
        <mxCell id="N9XQaocmGhFj3KNfDA1R-24" value="OK" style="text;html=1;align=center;verticalAlign=middle;whiteSpace=wrap;rounded=0;" vertex="1" parent="1">
          <mxGeometry x="1437.5" y="447" width="60" height="30" as="geometry" />
        </mxCell>
        <mxCell id="N9XQaocmGhFj3KNfDA1R-27" value="&lt;h2&gt;Forgot Password&lt;/h2&gt;" style="text;html=1;align=center;verticalAlign=middle;whiteSpace=wrap;rounded=0;fontStyle=1" vertex="1" parent="1">
          <mxGeometry x="131" y="-240" width="165.5" height="30" as="geometry" />
        </mxCell>
      </root>
    </mxGraphModel>
  </diagram>
</mxfile>
